<svg xmlns="http://www.w3.org/2000/svg" width="1390.147" height="265" viewBox="0 0 1390.147 265">
  <path id="Path_1" data-name="Path 1" d="M33.8,185.091l1-1.5H51l3-2.7c-.4-3.6.2-6.9-.8-10.2.8-3.3.6-7.2.8-10.8a50.071,50.071,0,0,1,.6-9.6,5.284,5.284,0,0,0-2.8-3.6l-2.2,1.5c-2-1.5-4.4-1.5-6.8-1.5-2.2,0-4.2-.3-6.2-.3-1.1-.009-2.1-.935-2.6-2.4a204.2,204.2,0,0,1-.2-22.207c.4-7.8-.6-15.6.6-23.407-1-7.5-.4-15-1-22.207a28.9,28.9,0,0,1,12.4-.3c4.2.6,8.4-1.2,12.8.6a44.234,44.234,0,0,0,.8-7.5c-1-3-.2-6.6,0-10.2.4-5.7,1.4-13.8.6-18.906-1-1.5-3.6.3-4.8.3-4.2,0-8.2-.3-12.4,1.5a8.661,8.661,0,0,0-7.6-1.2,27.8,27.8,0,0,1-5,0l-19.6-.6c-1.11-.058-2.134.888-2.6,2.4,1.2,4.8.8,10.2,1,15.9.4,7.5-.2,15,.6,22.507l.4,9.3v15a57.048,57.048,0,0,1-.4,8.4c-.2,2.4,1,5.1-.4,7.2.8,3.3-.6,6.9.2,9.9a22.754,22.754,0,0,1,.2,9l-.4,6.9c-1.6,1.8-3.2,1.5-5,1.5-1.2.3-2.2.6-2.6,2.4q.973,7.288,1.4,14.7l.8,15.6a8.8,8.8,0,0,1,1.2,2.4c1.6,1.5,3.2,0,4.6,1.8,1.4,4.8,0,9.9.4,14.7.2,4.8-.2,9.3.2,14.1.2,5.1-.6,9.9.4,15.3-.8,3.6-.6,8.1-.6,12.3v13.5c0,4.2-1.2,8.7-.4,13.2-1,6-.2,12.3-.6,18.306a31.523,31.523,0,0,0,2,12c3.4-3,7-.3,10.6-1.2,3.8-.6,7.6.3,10.8-.9a4.943,4.943,0,0,0,2-3.6c-1-3-.8-6-.8-9.3,0-14.7-.2-29.709,0-44.714-.17-2.126-.437-4.231-.8-6.3a30.354,30.354,0,0,0,.6-4.2q.349-4.182.4-8.4ZM139,222.6a8.742,8.742,0,0,1-.6-5.1c0-3-.6-6-.2-9,.2-3-.6-6-1.2-9l-.8-6.6c-.8-8.1-3.2-14.4-9-17.405a16.774,16.774,0,0,1,2.8-2.1c8.4-4.8,12.6-14.4,13.6-27.308a105.54,105.54,0,0,0-.2-21.006,38.863,38.863,0,0,1-.4-4.8,38.887,38.887,0,0,0-.2-8.4,54.213,54.213,0,0,1,0-5.7V68.656l-3.8-13.2a28.6,28.6,0,0,1-2.2-3c-3.2-6.9-7.8-9-13-9.9a8.309,8.309,0,0,1-2.8-.3c-2.4-1.5-4.8-1.2-7.2-1.2a21.537,21.537,0,0,1-6.2-.3,9.148,9.148,0,0,0-4.8-.9,124.006,124.006,0,0,0-23.6,0,2.28,2.28,0,0,0-1.2.6l-1.4,5.7c.6,8.1,1.2,15.9.8,23.407-.4,8.1,1.2,16.2-.6,24.007,1.2,3.9,0,8.4,1.6,11.7-.2,1.8-.6,3-.8,4.5-.2,3.9-.4,7.8-.8,11.7-.4,3.3,0,6.3.6,10.5a14.742,14.742,0,0,1,0,4.2c-.2,3.6,0,7.2,0,10.8a6.727,6.727,0,0,1-.4,1.5c-1.4.9-3,.3-4.4.6H68c-1.241.106-2.331,1.274-2.8,3,1.4,4.5.8,9.6,1.8,14.4a71.277,71.277,0,0,1,1.8,14.7,26.488,26.488,0,0,1,1.2,3.9c2.2,3,4.4,1.2,6,1.8.8,1.5.6,3,.6,4.5,0,9.3-.2,18.606,0,27.608.2,9.6-1.6,18.906-.4,28.509.2.3,0,.9-.2,1.5-.6,1.5-.2,3.3-.2,4.8.4,8.1.4,16.2.6,24.007l.4,16.805a6.727,6.727,0,0,0,3.4,4.2,47.312,47.312,0,0,1,16.2-1.2c2-1.5,4.8.9,5.8-3-.8-6.9-1.4-16.505-.2-23.407a11.008,11.008,0,0,0,0-5.7c-1-2.4.2-4.2-.2-6.6a43.569,43.569,0,0,1-.4-7.5c0-3,.2-6,.2-9,0-3.3-.4-6.3-.4-9.3V189.292a16.639,16.639,0,0,1,.6-2.4c1.2.6,3,0,4.4,1.5,4.2,3.6,4.4,11.1,5,16.805.4,6,2,12,1.4,18.306a8.616,8.616,0,0,0,.2,2.4c1.6,6.3,1,12.9,1.8,19.206.8,7.2.4,15,1.4,22.507q.812,7.739,2.2,15.3c.6,4.49,2.509,8.341,5.2,10.5,1.4,1.2,2.6,3,4.2,3.9,6-1.5,12-1.2,18-1.5,1.2,0,2.6.6,3.8-.6a6.567,6.567,0,0,0,1.2-1.5,25.3,25.3,0,0,0-.2-6.9l-6-9.3-3.4-15c-.2-3.9,0-7.5-.6-10.5a38.271,38.271,0,0,1-.4-6.6,33.617,33.617,0,0,0-.6-6.3C138,233.706,138.2,228.6,139,222.6Zm-20.6-80.124-1.6,3.9a5.486,5.486,0,0,1-3.4,2.7,21.707,21.707,0,0,1-4.4.3h-6.4a4.3,4.3,0,0,1-1.2-3.9c0-18.306,0-36.611-.2-54.617,0-3.9.4-8.1-.8-11.7.556-1.857,1.854-2.953,3.2-2.7h10l2.8,2.4,1.6,3.9a12.294,12.294,0,0,1,.2,2.7c.2,3.3-.2,6.6,1,9.9v1.5c0,9.3.6,18.606-.6,27.608-.4,3,.4,6-.2,9-.4,2.7,0,5.7,0,9Zm91-100.83-4-2.4c-7.6-4.2-13.6-4.8-20.8-2.1a24.924,24.924,0,0,1-4.6.9l-8.4,6.3c-3.2,5.1-5.6,9-8.2,12.6a52.53,52.53,0,0,1-3.2,8.1c.2,1.5-.4,5.4-.2,6.6a27.438,27.438,0,0,0-.4,11.4c.2,3.3.4,6.6.4,9.9.2,20.106.2,39.912.2,60.018v9.9c.2,3.6,0,6.9,0,10.2a102.867,102.867,0,0,0,.2,11.1c.4,3.3-.2,6.3-.2,9.6,0,6.3.4,12.6-.8,18.606a14.3,14.3,0,0,0-.2,4.2l1.2,51.916c1.8,6,2.8,12.3,6,17.105,6.4,7.5,13.6,12.9,21.4,14.4,6.2,1.2,12.4,0,18.4-1.8,3-2.4,6.4-2.7,9.2-5.7a96.347,96.347,0,0,0,6.8-9.9c1.4-1.8,2.2-6.9,2.8-8.4,1-8.4,1.8-15.9,1.6-23.407-.2-7.2-.2-14.1-.2-21.006,0-2.1.4-4.2,0-6-1-4.5-.8-9-.8-13.2-.2-3.6-.2-6.9-.2-10.2q-.1-8.862.4-17.705a198.745,198.745,0,0,0,.2-26.708q-.05-4.056.2-8.1c.2-4.8.6-9.6,0-14.1a157.834,157.834,0,0,1-1-16.805c0-3.9.2-7.8.2-11.7v-11.1c-.2-3.9.4-7.8-.8-11.7,1.4-3.9-.2-7.5,0-11.4,0-1.2-1.6-11.4-3.2-15a22.219,22.219,0,0,1-5.2-7.8,23.612,23.612,0,0,1-6.8-6.6Zm-7.8,220.567-2,3.3c-1.8.6-3.6-.3-4.8,1.2-3.8-.9-7.4-1.8-10.8-5.4-.8-1.8-.2-4.8-.2-7.5V208.2c0-3,.2-6-.8-9a9.2,9.2,0,0,1-.2-3.3c.6-3.6-.2-7.2,0-10.8.2-3.3,0-6.6,0-10.2s-.2-7.2-.2-10.8c0-16.805.2-33.91.2-50.715a19.485,19.485,0,0,1,.4-4.8,20.255,20.255,0,0,0,.4-6c-.2-6.6.8-13.5-.6-20.106.4-2.4,0-4.8,1.2-7.8a14.093,14.093,0,0,1,3.6-4.5,17.423,17.423,0,0,1,9.6-.3,9.247,9.247,0,0,1,3.2,3.6c0,.6.2,1.2.2,1.8,0,4.8.6,9.3,0,14.1a14.833,14.833,0,0,0,.2,4.2c1,3.3.6,6.6.6,9.9.2,3.9-.2,8.1.4,11.7.6,3.9-.6,6.9-.4,10.5a51.029,51.029,0,0,1-.6,13.5,38.26,38.26,0,0,0,0,11.7c.8,3.6.6,7.2.8,10.8s-.2,7.2,1,10.8c0,6,.4,12.3-.4,18.306,0,.9-.2,1.8-.2,2.4,1.2,7.5.4,15,.6,22.807a9.558,9.558,0,0,1,0,2.4c-1.4,9-.6,18.306-.8,27.608,0,5.1-.2,10.2-.4,16.2ZM295.8,38.947c-1.6,2.7-1.4,5.1-1.2,7.5.6,6,0,12.3,0,18.606.2,6.6,0,13.5,0,20.106a15.139,15.139,0,0,1-.2,3c-.8,2.7-.4,5.7-.2,8.4a115.009,115.009,0,0,1,.8,11.7c.4,8.1.2,16.2.2,24.007,0,7.2,1.2,24.908.6,31.81a15.139,15.139,0,0,0,.2,3,107.061,107.061,0,0,1,.2,18.005,63.761,63.761,0,0,1-1.2-6.6c-.6.6-1,0-1.2-.6,1-3-.4-5.1-.8-7.8-.8-4.8-1.4-9.6-3-13.8-1-3-2.8-16.805-3.6-19.806a34.873,34.873,0,0,1-2-10.2,5.824,5.824,0,0,0-.6-2.1c-1.2-3.9-2-8.4-3.4-12.3s-1.8-8.7-2.8-12.9c-1.8-7.8-2.8-15.6-4.4-23.407-.6-3.3-.8-6.9-1.8-9.9-1.4-3.6-1.6-7.8-2.8-11.7a94.741,94.741,0,0,1-2.4-11.1,4.338,4.338,0,0,0-1.8-3.3c-3.2,1.8-6.8-2.1-10,.9-5.4,0-6.2-1.5-9.2.3a1.368,1.368,0,0,0-2.2-.3c-.6.9-1.6,1.5-1.6,3,.2,4.8.6,9.9,0,14.7-.4,3.6.4,7.2,0,11.1-.2.6.4,1.2.8,2.1a9.547,9.547,0,0,0-.6,4.2,75.576,75.576,0,0,1-.2,11.7c-.4,6,0,12-.4,17.705,0,4.8-.6,9.6-.4,14.1.4,10.5.4,20.706.6,30.909,0,6-.6,12-.2,18.005.2,3.9,1.2,7.8.8,11.4,0,1.8-.8,14.7-.6,16.5a36.4,36.4,0,0,1,0,6.6,62.757,62.757,0,0,0,0,15c.4,3.3,0,7.2.4,10.5.2,3-.8,6-.2,9,.6,2.1.4,4.2.4,6.6a114.216,114.216,0,0,0,0,11.7,149.055,149.055,0,0,1,0,18.906c-.6,7.2-.2,14.1-.4,21.006.6,1.2,1,2.4,2,2.4,2.4-1.8,4-1.5,6.6-.9,3.2.9,7.8.3,8.6-.6,1.6.3,2.8-.9,4.4.6,1.358,1.032,3.011.536,4-1.2.4-1.2-.4-2.1-.4-3,.2-1.2,1-1.5,1.2-3v-11.1l-.4-18.005c-.2-3,0-6-1-9,1-1.5.8-3.3.8-4.8-.4-10.2-.8-20.106-.6-30.309a25.492,25.492,0,0,1-.2-3.9c.233-6.8.167-13.618-.2-20.406-.4-4.2-.6-8.1-.8-12.3,0-9.3.4-18.606-.4-27.908-.2-1.5-.8-4.2.4-6.6,1.2,3.3,2.6,5.7,2.4,9.6l1.2,2.1c-.6.9.6,1.8-.2,2.7l1.6,2.7c-1.4.6.4,1.8-.4,2.4l1.6,2.7q.95,8.96,2.6,17.705c2,9,3.8,18.305,5.6,27.308.8,4.5,1.2,9.3,2.4,13.8q1.338,6.3,3.2,12.3a129.1,129.1,0,0,1,3.4,18.305c.4,2.1,1.4,3.9,1.8,6,1.2,9.3,3,18.606,4.6,27.908.4,2.1.8,4.8,2.6,6h3.4c1.2.3,3.6-.9,5.2-.3,2.4.9,5,2.7,7.8,1.2,2.8,2.1,4.4-1.5,6.6-2.4,0-.9,0-1.2-.2-1.5-.2-2.1.6-3.9.8-6v-6.3c-.133-4.1-.066-8.215.2-12.3.2-3.9-.2-8.1,0-12.3s.2-8.7.2-13.2c0-8.7-1-17.405-.8-26.408a77.111,77.111,0,0,0-.4-9.6,27.519,27.519,0,0,1-.2-4.2l.6-18.005c.071-4.909-.063-9.82-.4-14.7-.2-2.7.2-5.7-.4-8.4-.6-3.3-.4-6.6-.8-9.9-.4-3.9,0-8.1,0-12.3s0-8.4-.2-12.6.2-8.4.2-12.3c-.2-4.8,0-9.3,0-13.8V43.448a4.565,4.565,0,0,0-1-3.3C311,40.147,303.4,40.447,295.8,38.947Zm100-.3c-2.6-.6-4.4.9-6.4-.3-2,1.5-4,.9-6,.9-2.6.3-5.2,1.8-7.8.3-.6-.3-1.4.3-2.2.6a16.7,16.7,0,0,1-3.8.6c-11.2,0-20,.3-31.2.3a35.647,35.647,0,0,1-5.4-.6c-.8.9-2.4-.3-3.4,1.8,1.8,11.1,3,22.507,5.8,33.91a12.43,12.43,0,0,0,4.8-.3c4-1.5,5.8-.6,9.8-.9,1,0,2,0,2.6,1.5,0,6.9.2,13.8.2,21.006a29.227,29.227,0,0,0,.6,7.2c-1.2,5.4-.4,11.1-.4,16.805,0,4.8-.4,9.6.8,14.1a23.263,23.263,0,0,1-.4,5.1c-1.2,7.5-.2,15-.2,22.507,1.2,4.8.6,9.3.4,14.1a64.711,64.711,0,0,0-.6,6.6c-.1,2.2-.1,4.4,0,6.6V214.2a21.814,21.814,0,0,0,.2,5.1c.8,2.4.6,4.8.6,7.2,0,6.9-.2,13.5-.2,20.106,0,2.7.6,5.4,0,7.5-.6,2.7,0,5.4-.4,8.1-.8,5.4-.4,11.1-.4,16.805-.2,4.5,0,11.1-.4,15.6a5.453,5.453,0,0,0,3.2,3.6c6.6-2.4,14.2-.3,21.4-1.8l1.6-3c-.4-9.9.8-22.507-1-33.01,1.2-2.1,1.2-5.1,1-7.8-.2-3,0-6-.4-9.3-.2-2.7.4-6,.4-9,0-5.3-.2-10.606-.6-15.886-.334-4.087-.468-8.205-.4-12.322.2-4.2-.2-8.7-.2-12.9s-.6-8.1-.8-12.3c-.4-6.9,0-13.8.2-21.006,1-3,.6-6.6.6-9.9,0-14.4,0-28.509.2-42.913,0-6.6-.2-12.9-.2-19.506a89.614,89.614,0,0,1,.4-10.5c6.2-3.6,12.4-1.2,18.6-2.7.4-2.1,1.4-3.9,1.2-6.3q-.25-4.19-.2-8.4c0-5.7-1.2-11.4,0-17.105Zm101.4.3c-1.4.6-2.6,1.5-3.8,1.2-8.2-.6-16.6,1.2-24.8-.9-1.6,1.5-3.6-.6-5.4.6a2.655,2.655,0,0,1-2.6.3c-3.4-2.1-6.8-.6-10-1.5a1.652,1.652,0,0,0-1.6.6,23.711,23.711,0,0,0-.2,9.9c.6,3.3.4,6.3.6,9.3,0,3-.2,6.3,0,9.3a18.053,18.053,0,0,0,.8,4.2c-.8,1.5-.6,3.3-.6,5.4v13.5c0,6,.2,12.3-1.2,18.306,1.2,7.8,1.6,20.106.4,33.91-1.8,1.2-3.8.3-5.6.9a11.416,11.416,0,0,0-2.6,4.5c.6,4.8,1.6,10.2,2,15.3.4,5.7,1.2,11.1,1.6,15.6,1.8,2.4,4,0,5,2.7.2,21.907.4,43.813.4,65.72,0,2.7,1.2,5.4.2,8.1-.8,2.4.8,4.2.2,6.6-.6,2.1-.4,4.5-.6,6.6v6.9c0,4.8.2,9.9,0,15,0,1.5-.2,2.7.4,3.9,1.2,2.4,3,2.1,4.8,2.4,2.2.3,4.4-.6,6.6.6,2.2-1.5,4.4.3,6.6.6,1.6,0,3-.9,5-1.2,1.6,1.5,4.2,1.8,6.6,1.2a39.072,39.072,0,0,1,15.6-1.2c1.6,0,3.4.3,5.2-1.2a15.244,15.244,0,0,0,.8-2.7c.2-3.3.2-6.6.2-9.9,0-6.9,0-13.5.4-20.106-.6-1.5,0-3.6-1.2-4.8-5.4.3-11.2-1.2-16.6,1.2a18.549,18.549,0,0,0-3.8-1.2,11.174,11.174,0,0,0-4.4.3c-.089-2.319-.289-4.626-.6-6.9-.8-2.4-.6-4.8-.6-7.5-.2-8.7,0-17.405,0-26.108a53.862,53.862,0,0,0-1-12c1.2-9,.2-17.405,1.4-25.208a4.265,4.265,0,0,1,1.8-.6l17.2-.9c.7.083,1.345-.526,1.6-1.5v-6.9c.1-2.2.1-4.4,0-6.6,0-2.1-.8-4.2-.2-6.3-1-2.4.8-4.5,0-6.6s1-4.2-.4-6.6a2.992,2.992,0,0,0-2.8-1.8l-5,.9a25.029,25.029,0,0,1-12.4-.3c-.8-2.7-.4-5.7-.6-8.7-.4-14.1,1-28.209-.6-42.013v-.9a69.14,69.14,0,0,0-.2-12.9c0-1.8-.2-3.6.8-4.8a11.145,11.145,0,0,1,8.2.9,4.881,4.881,0,0,1,2.2-1.2,13.044,13.044,0,0,1,3.4-.3,23.785,23.785,0,0,0,11-2.4c.8-8.4-.2-16.505.2-24.607a43.332,43.332,0,0,0,0-5.1,5.628,5.628,0,0,0-1.8-3Zm70.4,0c-1.6,2.7-1.4,5.1-1.2,7.5.6,6,0,12.3,0,18.606.2,6.6,0,13.5,0,20.106a15.148,15.148,0,0,1-.2,3c-.8,2.7-.4,5.7-.2,8.4a115.044,115.044,0,0,1,.8,11.7c.4,8.1.2,16.2.2,24.007,0,7.2,1.2,24.908.6,31.81a15.134,15.134,0,0,0,.2,3,107.077,107.077,0,0,1,.2,18.005,63.758,63.758,0,0,1-1.2-6.6c-.6.6-1,0-1.2-.6,1-3-.4-5.1-.8-7.8-.8-4.8-1.4-9.6-3-13.8-1-3-2.8-16.805-3.6-19.806a34.873,34.873,0,0,1-2-10.2,5.821,5.821,0,0,0-.6-2.1c-1.2-3.9-2-8.4-3.4-12.3s-1.8-8.7-2.8-12.9c-1.8-7.8-2.8-15.6-4.4-23.407-.6-3.3-.8-6.9-1.8-9.9-1.4-3.6-1.6-7.8-2.8-11.7a94.754,94.754,0,0,1-2.4-11.1,4.338,4.338,0,0,0-1.8-3.3c-3.2,1.8-6.8-2.1-10,.9-5.4,0-6.2-1.5-9.2.3a1.368,1.368,0,0,0-2.2-.3c-.6.9-1.6,1.5-1.6,3,.2,4.8.6,9.9,0,14.7-.4,3.6.4,7.2,0,11.1-.2.6.4,1.2.8,2.1a9.547,9.547,0,0,0-.6,4.2,75.582,75.582,0,0,1-.2,11.7c-.4,6,0,12-.4,17.705,0,4.8-.6,9.6-.4,14.1.4,10.5.4,20.706.6,30.909,0,6-.6,12-.2,18.005.2,3.9,1.2,7.8.8,11.4,0,1.8-.8,14.7-.6,16.5a36.4,36.4,0,0,1,0,6.6,62.752,62.752,0,0,0,0,15c.4,3.3,0,7.2.4,10.5.2,3-.8,6-.2,9,.6,2.1.4,4.2.4,6.6a114.194,114.194,0,0,0,0,11.7,149.057,149.057,0,0,1,0,18.906c-.6,7.2-.2,14.1-.4,21.006.6,1.2,1,2.4,2,2.4,2.4-1.8,4-1.5,6.6-.9,3.2.9,7.8.3,8.6-.6,1.6.3,2.8-.9,4.4.6,1.358,1.032,3.011.536,4-1.2.4-1.2-.4-2.1-.4-3,.2-1.2,1-1.5,1.2-3v-11.1l-.4-18.005c-.2-3,0-6-1-9,1-1.5.8-3.3.8-4.8-.4-10.2-.8-20.106-.6-30.309a25.492,25.492,0,0,1-.2-3.9c.233-6.8.167-13.618-.2-20.406-.4-4.2-.6-8.1-.8-12.3,0-9.3.4-18.606-.4-27.908-.2-1.5-.8-4.2.4-6.6,1.2,3.3,2.6,5.7,2.4,9.6l1.2,2.1c-.6.9.6,1.8-.2,2.7l1.6,2.7c-1.4.6.4,1.8-.4,2.4l1.6,2.7q.95,8.96,2.6,17.705c2,9,3.8,18.305,5.6,27.308.8,4.5,1.2,9.3,2.4,13.8q1.338,6.3,3.2,12.3a129.094,129.094,0,0,1,3.4,18.305c.4,2.1,1.4,3.9,1.8,6,1.2,9.3,3,18.606,4.6,27.908.4,2.1.8,4.8,2.6,6H573c1.2.3,3.6-.9,5.2-.3,2.4.9,5,2.7,7.8,1.2,2.8,2.1,4.4-1.5,6.6-2.4,0-.9,0-1.2-.2-1.5-.2-2.1.6-3.9.8-6v-6.3c-.133-4.1-.066-8.215.2-12.3.2-3.9-.2-8.1,0-12.3s.2-8.7.2-13.2c0-8.7-1-17.405-.8-26.408a77.123,77.123,0,0,0-.4-9.6,27.527,27.527,0,0,1-.2-4.2l.6-18.005c.071-4.909-.063-9.82-.4-14.7-.2-2.7.2-5.7-.4-8.4-.6-3.3-.4-6.6-.8-9.9-.4-3.9,0-8.1,0-12.3s0-8.4-.2-12.6.2-8.4.2-12.3c-.2-4.8,0-9.3,0-13.8V43.448a4.565,4.565,0,0,0-1-3.3C582.8,40.147,575.2,40.447,567.6,38.947Zm39.6,3.3c1.4,11.4,0,22.207,1.2,33.31-1.4,4.8.2,10.2-.2,15.9-.4,3.3.6,6.9,1.2,11.1a142.1,142.1,0,0,0-.4,22.807c.6,3.9,1,8.1-.2,12a18.115,18.115,0,0,0,0,3.3c0,18.606.2,37.211.2,55.817a36.442,36.442,0,0,0,.2,6.6c.8,3.3.6,6.6.6,9.9.2,6,.2,12,.2,17.705v61.519l1.8,6.3,3.4-1.2h8.4a132.194,132.194,0,0,1,21.8,0c6,.3,11.6-.3,16.8-3.9,5.8-7.2,10.6-15,13.2-25.808V220.8c0-5.4.2-11.1,0-16.805,0-4.8.2-9.6-1.4-14.7,1.4-2.7,1.2-6.6,1.2-10.2v-32.71c.2-8.7.2-17.105.2-25.508,0-6-.4-12.3-.2-18.606.2-6-1.8-12-.2-18.005-1.2-6.6-.4-13.5-.8-20.406l-3.6-10.2a20.843,20.843,0,0,0-2.2-3.9,37.376,37.376,0,0,0-12.6-10.2c-2.8-1.5-5.8-3.3-8.8-2.1-2.8,1.5-5.4,1.2-8.2,1.2-2.8-.3-5.4-1.8-8.2,0-5-.6-10,0-15-.6-2.2-.3-4.4-.9-6.8,1.2Zm27.4,32.11a35.545,35.545,0,0,0,9.6,1.5c3.4,3.3,4.6,7.8,5.2,13.5,1.4,11.1,1,22.207,1.2,33.61.2,2.7-.2,5.4.6,7.8a52.976,52.976,0,0,0-.4,7.8c0,6.9-.4,13.8.6,20.706.6,3.3.2,6.9.2,10.2,0,12,.2,24.007.2,36.311,0,11.1-.2,22.207,0,33.61a59.108,59.108,0,0,1-1.4,10.5,16.439,16.439,0,0,1-4.6,9.3c-5.8,3-5.8,3-11.4,2.1-1-.9-.6-2.4-.6-3.6-.2-6-.2-12-.2-17.705-.2-3.9.2-7.8-.8-11.7-.2-.9,0-2.4-.2-3.3-.4-2.7,1-5.4.2-8.4-.6-2.4,0-4.8.6-7.2.2-.6,0-1.2.2-1.8.2-4.5-.6-9.3,0-14.1.269-4.389.336-8.8.2-13.2,0-4.8-.2-9.6-.2-14.4a17.549,17.549,0,0,0-.6-5.7l-.4-3.3c-.2-3.6.6-7.2.2-10.8a86.877,86.877,0,0,1-.2-10.2c.2-2.1.8-4.5.6-6.6a34.493,34.493,0,0,1-.6-6.6c0-9.9,0-19.506.2-29.409,0-3,.6-6,.8-9,.2-2.7,0-5.7.2-8.4,0-.6.4-.9.8-1.5Zm94.2-32.11c1.4,11.4,0,22.207,1.2,33.31-1.4,4.8.2,10.2-.2,15.9-.4,3.3.6,6.9,1.2,11.1a142.1,142.1,0,0,0-.4,22.807c.6,3.9,1,8.1-.2,12a18.115,18.115,0,0,0,0,3.3c0,18.606.2,37.211.2,55.817a36.447,36.447,0,0,0,.2,6.6c.8,3.3.6,6.6.6,9.9.2,6,.2,12,.2,17.705v61.519l1.8,6.3,3.4-1.2h8.4a132.194,132.194,0,0,1,21.8,0c6,.3,11.6-.3,16.8-3.9,5.8-7.2,10.6-15,13.2-25.808V220.8c0-5.4.2-11.1,0-16.805,0-4.8.2-9.6-1.4-14.7,1.4-2.7,1.2-6.6,1.2-10.2v-32.71c.2-8.7.2-17.105.2-25.508,0-6-.4-12.3-.2-18.606.2-6-1.8-12-.2-18.005-1.2-6.6-.4-13.5-.8-20.406l-3.6-10.2a20.839,20.839,0,0,0-2.2-3.9,37.376,37.376,0,0,0-12.6-10.2c-2.8-1.5-5.8-3.3-8.8-2.1-2.8,1.5-5.4,1.2-8.2,1.2-2.8-.3-5.4-1.8-8.2,0-5-.6-10,0-15-.6-2.2-.3-4.4-.9-6.8,1.2Zm27.4,32.11a35.545,35.545,0,0,0,9.6,1.5c3.4,3.3,4.6,7.8,5.2,13.5,1.4,11.1,1,22.207,1.2,33.61.2,2.7-.2,5.4.6,7.8a52.985,52.985,0,0,0-.4,7.8c0,6.9-.4,13.8.6,20.706.6,3.3.2,6.9.2,10.2,0,12,.2,24.007.2,36.311,0,11.1-.2,22.207,0,33.61a59.108,59.108,0,0,1-1.4,10.5,16.439,16.439,0,0,1-4.6,9.3c-5.8,3-5.8,3-11.4,2.1-1-.9-.6-2.4-.6-3.6-.2-6-.2-12-.2-17.705-.2-3.9.2-7.8-.8-11.7-.2-.9,0-2.4-.2-3.3-.4-2.7,1-5.4.2-8.4-.6-2.4,0-4.8.6-7.2.2-.6,0-1.2.2-1.8.2-4.5-.6-9.3,0-14.1.269-4.389.336-8.8.2-13.2,0-4.8-.2-9.6-.2-14.4a17.549,17.549,0,0,0-.6-5.7l-.4-3.3c-.2-3.6.6-7.2.2-10.8a86.863,86.863,0,0,1-.2-10.2c.2-2.1.8-4.5.6-6.6a34.5,34.5,0,0,1-.6-6.6c0-9.9,0-19.506.2-29.409,0-3,.6-6,.8-9,.2-2.7,0-5.7.2-8.4C755.4,75.258,755.8,74.958,756.2,74.357Zm106-35.411c-1.4.6-2.6,1.5-3.8,1.2-8.2-.6-16.6,1.2-24.8-.9-1.6,1.5-3.6-.6-5.4.6a2.655,2.655,0,0,1-2.6.3c-3.4-2.1-6.8-.6-10-1.5a1.652,1.652,0,0,0-1.6.6,23.712,23.712,0,0,0-.2,9.9c.6,3.3.4,6.3.6,9.3,0,3-.2,6.3,0,9.3a18.056,18.056,0,0,0,.8,4.2c-.8,1.5-.6,3.3-.6,5.4v13.5c0,6,.2,12.3-1.2,18.306,1.2,7.8,1.6,20.106.4,33.91-1.8,1.2-3.8.3-5.6.9a11.417,11.417,0,0,0-2.6,4.5c.6,4.8,1.6,10.2,2,15.3.4,5.7,1.2,11.1,1.6,15.6,1.8,2.4,4,0,5,2.7.2,21.907.4,43.813.4,65.72,0,2.7,1.2,5.4.2,8.1-.8,2.4.8,4.2.2,6.6-.6,2.1-.4,4.5-.6,6.6v6.9c0,4.8.2,9.9,0,15,0,1.5-.2,2.7.4,3.9,1.2,2.4,3,2.1,4.8,2.4,2.2.3,4.4-.6,6.6.6,2.2-1.5,4.4.3,6.6.6,1.6,0,3-.9,5-1.2,1.6,1.5,4.2,1.8,6.6,1.2a39.071,39.071,0,0,1,15.6-1.2c1.6,0,3.4.3,5.2-1.2a15.247,15.247,0,0,0,.8-2.7c.2-3.3.2-6.6.2-9.9,0-6.9,0-13.5.4-20.106-.6-1.5,0-3.6-1.2-4.8-5.4.3-11.2-1.2-16.6,1.2a18.548,18.548,0,0,0-3.8-1.2,11.174,11.174,0,0,0-4.4.3c-.088-2.319-.289-4.626-.6-6.9-.8-2.4-.6-4.8-.6-7.5-.2-8.7,0-17.405,0-26.108a53.87,53.87,0,0,0-1-12c1.2-9,.2-17.405,1.4-25.208a4.267,4.267,0,0,1,1.8-.6l17.2-.9c.7.083,1.345-.526,1.6-1.5v-6.9c.1-2.2.1-4.4,0-6.6,0-2.1-.8-4.2-.2-6.3-1-2.4.8-4.5,0-6.6s1-4.2-.4-6.6a2.992,2.992,0,0,0-2.8-1.8l-5,.9a25.029,25.029,0,0,1-12.4-.3c-.8-2.7-.4-5.7-.6-8.7-.4-14.1,1-28.209-.6-42.013v-.9a69.145,69.145,0,0,0-.2-12.9c0-1.8-.2-3.6.8-4.8a11.145,11.145,0,0,1,8.2.9,4.881,4.881,0,0,1,2.2-1.2,13.043,13.043,0,0,1,3.4-.3,23.785,23.785,0,0,0,11-2.4c.8-8.4-.2-16.5.2-24.607a43.306,43.306,0,0,0,0-5.1,5.627,5.627,0,0,0-1.8-3Zm62.6,1.8c-1.2,3.6-1.8,6.3-1,10.2-1,4.8-.2,9.9-.8,15-.4,4.8,0,9.9-.8,14.7v.9c-.6,8.7-.2,17.405-1,26.108-.8,8.1-.4,16.5-1.2,24.908-.8,7.2-.6,14.4-1,21.907-.6,7.8-.6,16.2-1.2,24.307-.8,7.8-1,15.9-1.6,24.007a5.44,5.44,0,0,1,0,1.8c-1.4,4.2-.4,9-1.4,13.2-.8,4.5-.6,9-.8,13.5a20.009,20.009,0,0,1-.2,3.3c-1.4-7.2-2.2-14.4-3.2-21.907-.6-5.1-.6-10.5-1.6-15.6-1.4-8.7-1.8-17.705-2.6-26.408-.7-6.05-1.1-12.168-1.2-18.306a44.315,44.315,0,0,0-.6-5.1,64.737,64.737,0,0,1-.6-6.6l-1.2-26.408a22.589,22.589,0,0,1-.4-3.3q-.43-3.725-.6-7.5c0-8.1-1.6-16.2-1.4-24.307-1.2-4.2-.6-9-1-13.2-.034-2.013-.168-4.019-.4-6l-1.2-15c0-.9.6-1.8.2-3a6.59,6.59,0,0,0-3.6-2.4c-1,.3-3.2.3-4,.6a18.253,18.253,0,0,0-6.8-.9c-3.2.3-7.2,1.8-10-.6l-1.8,2.4v2.1c1.4,9.3,3.2,17.405,3,27.008a44.313,44.313,0,0,0,.6,5.1,25.788,25.788,0,0,1,.4,3.9c-.4,8.7,1,16.805,1.6,25.208.4,9,2.2,18.005,2,27.308v1.8c1.2,3.6.8,7.2.8,10.8l.4,6c1.2,6.9,1.6,14.1,2.4,21.306,1,8.7,1,17.105,1.8,25.508.6,5.4.6,10.8,1.4,15.9,1.2,6,.2,12.3,1.6,18.306-1.4,5.7,1,11.4.6,17.405,1.6,4.2.8,9.3,1.8,13.8,1,4.8,1,9.9,1.4,15,.4,4.5.8,8.7,1.4,13.2a11.464,11.464,0,0,0,2.8,6.6c2.4-1.5,4.8,1.2,7.4.6a67.638,67.638,0,0,1,7.8,0c2.8,0,5.6-.3,8.4-.3,2.6-.3,5.4.6,8-.6a11.768,11.768,0,0,0,1.2-3c.4-5.1,1.2-10.5,1-15.6,0-7.8,2-15,1.6-22.507,1-4.2.6-8.4,1.4-12.6.6-4.2.4-8.4,1-12.3.6-4.8.4-9.6,1-14.1a87.224,87.224,0,0,0,1-14.4c.2-.9,0-2.4.2-3.3,1.2-3.6.6-7.8,1-11.7l1-12.3c.4-6.9.8-13.8,1.4-21.006a4.7,4.7,0,0,1,.2-1.5,165.611,165.611,0,0,0,1.8-19.806c.2-1.5,0-3,.2-4.2,1.6-8.4,1-16.805,2.2-24.908v-2.7c-.2-6.3,1-12.6,1.4-19.206.4-5.7,1.2-11.4,1.6-17.405.8-8.7,1.4-16.5,2-25.208-.2-.6-1.8.3-2.4-.6-2.2,1.8-3.4,0-5.8,1.2s-5.2.6-7.8,1.2C930,41.347,927.4,39.247,924.8,40.747Zm83.8-1.8c-1.4.6-2.6,1.5-3.8,1.2-8.2-.6-16.6,1.2-24.8-.9-1.6,1.5-3.6-.6-5.4.6a2.655,2.655,0,0,1-2.6.3c-3.4-2.1-6.8-.6-10-1.5a1.652,1.652,0,0,0-1.6.6,23.712,23.712,0,0,0-.2,9.9c.6,3.3.4,6.3.6,9.3,0,3-.2,6.3,0,9.3a18.05,18.05,0,0,0,.8,4.2c-.8,1.5-.6,3.3-.6,5.4v13.5c0,6,.2,12.3-1.2,18.306,1.2,7.8,1.6,20.106.4,33.91-1.8,1.2-3.8.3-5.6.9a11.417,11.417,0,0,0-2.6,4.5c.6,4.8,1.6,10.2,2,15.3.4,5.7,1.2,11.1,1.6,15.6,1.8,2.4,4,0,5,2.7.2,21.907.4,43.813.4,65.72,0,2.7,1.2,5.4.2,8.1-.8,2.4.8,4.2.2,6.6-.6,2.1-.4,4.5-.6,6.6v6.9c0,4.8.2,9.9,0,15,0,1.5-.2,2.7.4,3.9,1.2,2.4,3,2.1,4.8,2.4,2.2.3,4.4-.6,6.6.6,2.2-1.5,4.4.3,6.6.6,1.6,0,3-.9,5-1.2,1.6,1.5,4.2,1.8,6.6,1.2a39.07,39.07,0,0,1,15.6-1.2c1.6,0,3.4.3,5.2-1.2a15.246,15.246,0,0,0,.8-2.7c.2-3.3.2-6.6.2-9.9,0-6.9,0-13.5.4-20.106-.6-1.5,0-3.6-1.2-4.8-5.4.3-11.2-1.2-16.6,1.2a18.545,18.545,0,0,0-3.8-1.2,11.175,11.175,0,0,0-4.4.3c-.088-2.319-.289-4.626-.6-6.9-.8-2.4-.6-4.8-.6-7.5-.2-8.7,0-17.405,0-26.108a53.859,53.859,0,0,0-1-12c1.2-9,.2-17.405,1.4-25.208a4.266,4.266,0,0,1,1.8-.6l17.2-.9c.7.083,1.345-.526,1.6-1.5v-6.9c.1-2.2.1-4.4,0-6.6,0-2.1-.8-4.2-.2-6.3-1-2.4.8-4.5,0-6.6s1-4.2-.4-6.6a2.992,2.992,0,0,0-2.8-1.8l-5,.9a25.029,25.029,0,0,1-12.4-.3c-.8-2.7-.4-5.7-.6-8.7-.4-14.1,1-28.209-.6-42.013v-.9a69.145,69.145,0,0,0-.2-12.9c0-1.8-.2-3.6.8-4.8a11.145,11.145,0,0,1,8.2.9,4.88,4.88,0,0,1,2.2-1.2,13.044,13.044,0,0,1,3.4-.3,23.784,23.784,0,0,0,11-2.4c.8-8.4-.2-16.5.2-24.607a43.306,43.306,0,0,0,0-5.1,5.627,5.627,0,0,0-1.8-3Zm59.6,222.067c-3.8.9-13.4.9-18.8,0-.6-1.2-.4-2.4-.4-3.9V199.8c-.2-6.6.2-13.5-.8-20.106-.4-2.7.4-6,.2-9a160.54,160.54,0,0,1,.4-29.409,27.535,27.535,0,0,0,.2-4.2c0-6.9.2-13.8,0-21.006V74.958a101.452,101.452,0,0,0-.2-11.1c-.6-3.9,0-7.8-.4-11.4-.6-3.9.2-7.5,0-11.7-4.2-2.1-9-.3-13.4-1.8a6.26,6.26,0,0,0-1.2.6l-1.2,1.8-2.6-2.4c-2.6-.6-4.4,1.5-6.2,3.6.8,10.5,0,20.706,1,31.209-.6,1.8-.4,4.2-.6,6.3-.4,7.5.6,15.3-.8,22.807a15.316,15.316,0,0,0,.2,4.2,23.555,23.555,0,0,1,.6,6.6c0,18.005.2,35.711.2,53.716,0,2.7.4,5.1.4,7.5a5.18,5.18,0,0,1,.2,2.4c-.4,2.4-.8,4.5,0,6.6.8,2.4-.6,4.2-.4,6.6a38.334,38.334,0,0,1,.4,11.7c-.6,3.6,0,7.5,0,11.1-.2,3.3-.6,6.6-.6,9.9.2,3.6,0,7.2,0,11.1a19.477,19.477,0,0,0,.4,4.8c.8,2.1.6,4.5.6,6.6l.6,5.1c-1,2.1-.6,4.8-1,7.2-.2,2.4.8,4.8-.4,6.9,1,2.4,0,5.1.4,7.5a9.2,9.2,0,0,1,.2,3.3c-1.6,5.7-.8,11.4-.8,17.405a5.108,5.108,0,0,0,1.2,4.2c2.8,0,6-.3,9,0,3,.6,6,0,8.8,0,3.2-.3,6.2.3,9.4,0l17-.6a43.2,43.2,0,0,0,5.8-.9c.4-.3.8-1.2,1.2-1.5,0-.3.2-.6.2-.9-2.6-9.6-5-19.206-7-29.109A4.339,4.339,0,0,0,1068.2,261.014Zm63.4-219.366-4-2.4c-7.6-4.2-13.6-4.8-20.8-2.1a24.923,24.923,0,0,1-4.6.9l-8.4,6.3c-3.2,5.1-5.6,9-8.2,12.6a52.527,52.527,0,0,1-3.2,8.1c.2,1.5-.4,5.4-.2,6.6a27.439,27.439,0,0,0-.4,11.4c.2,3.3.4,6.6.4,9.9.2,20.106.2,39.912.2,60.018v9.9c.2,3.6,0,6.9,0,10.2a102.843,102.843,0,0,0,.2,11.1c.4,3.3-.2,6.3-.2,9.6,0,6.3.4,12.6-.8,18.606a14.3,14.3,0,0,0-.2,4.2l1.2,51.916c1.8,6,2.8,12.3,6,17.105,6.4,7.5,13.6,12.9,21.4,14.4,6.2,1.2,12.4,0,18.4-1.8,3-2.4,6.4-2.7,9.2-5.7a96.349,96.349,0,0,0,6.8-9.9c1.4-1.8,2.2-6.9,2.8-8.4,1-8.4,1.8-15.9,1.6-23.407-.2-7.2-.2-14.1-.2-21.006,0-2.1.4-4.2,0-6-1-4.5-.8-9-.8-13.2-.2-3.6-.2-6.9-.2-10.2q-.1-8.862.4-17.705a198.732,198.732,0,0,0,.2-26.708q-.05-4.056.2-8.1c.2-4.8.6-9.6,0-14.1a157.819,157.819,0,0,1-1-16.805c0-3.9.2-7.8.2-11.7v-11.1c-.2-3.9.4-7.8-.8-11.7,1.4-3.9-.2-7.5,0-11.4,0-1.2-1.6-11.4-3.2-15a22.217,22.217,0,0,1-5.2-7.8,23.606,23.606,0,0,1-6.8-6.6Zm-7.8,220.567-2,3.3c-1.8.6-3.6-.3-4.8,1.2-3.8-.9-7.4-1.8-10.8-5.4-.8-1.8-.2-4.8-.2-7.5V208.2c0-3,.2-6-.8-9a9.2,9.2,0,0,1-.2-3.3c.6-3.6-.2-7.2,0-10.8.2-3.3,0-6.6,0-10.2s-.2-7.2-.2-10.8c0-16.805.2-33.91.2-50.715a19.482,19.482,0,0,1,.4-4.8,20.259,20.259,0,0,0,.4-6c-.2-6.6.8-13.5-.6-20.106.4-2.4,0-4.8,1.2-7.8a14.1,14.1,0,0,1,3.6-4.5,17.424,17.424,0,0,1,9.6-.3,9.247,9.247,0,0,1,3.2,3.6c0,.6.2,1.2.2,1.8,0,4.8.6,9.3,0,14.1a14.834,14.834,0,0,0,.2,4.2c1,3.3.6,6.6.6,9.9.2,3.9-.2,8.1.4,11.7.6,3.9-.6,6.9-.4,10.5a51.024,51.024,0,0,1-.6,13.5,38.259,38.259,0,0,0,0,11.7c.8,3.6.6,7.2.8,10.8s-.2,7.2,1,10.8c0,6,.4,12.3-.4,18.306,0,.9-.2,1.8-.2,2.4,1.2,7.5.4,15,.6,22.807a9.559,9.559,0,0,1,0,2.4c-1.4,9-.6,18.306-.8,27.608,0,5.1-.2,10.2-.4,16.2Zm43.4-113.434c-3,1.5-5.8,0-8.6.3l-1.4,2.4a102.307,102.307,0,0,1,2,10.8c.2,3.6,1.2,6.9,1.2,10.5a46.333,46.333,0,0,0,1.2,9,4.192,4.192,0,0,0,.4,1.5c1,1.2,2.2.6,3.4.6,1.2.3,2-1.2,2.8,1.2,0,4.5-.2,11.4-.2,16.5.2,16.2.4,32.41.2,48.915a68.944,68.944,0,0,1-.6,10.8,28.826,28.826,0,0,0,0,11.7,27.188,27.188,0,0,1,0,9c-.8,4.8-.8,9.9,1.8,14.4a94.4,94.4,0,0,0,20.6.3,6.567,6.567,0,0,1,1.2-1.5,30.559,30.559,0,0,0,.6-8.4v-6.9c.4-14.7-.4-29.709.6-44.413a187.766,187.766,0,0,1,.4-31.81,4.706,4.706,0,0,0-.2-1.5c0-.6-.4-1.2-.2-1.8.8-4.8.2-9.9.8-15a4.189,4.189,0,0,0,.4-.9c7.8-.9,15.8.3,24.4-3.3,3.4-2.7,8-4.8,11.2-9.9q1.309-2.9,2.4-6a21.677,21.677,0,0,0,2-10.2c-.4-9,.2-18.005,0-27.008,0-18.906-.2-37.811-.2-56.417v-7.5l-1.6-3.9a33.8,33.8,0,0,0-9-16.5c-2-2.1-4-3.9-6.2-3.6-2.4,0-4.6-1.5-7-.6-1.8.9-4-.3-6,.9-2.2-2.1-4.4.3-6.6,0a16.1,16.1,0,0,0-3.8,0c-3.8,0-7.6-.3-11.4,0-2.6,0-5.2,1.2-7.6-.6-4-.6-5.2.3-7.6.9q.337,3.732.4,7.5l.4,30.609c0,3.9.4,8.1.2,12.3-.8,11.7-.4,23.407-.4,35.411ZM1193,74.357c4.6-1.8,9-2.1,13.6.9,2.2,2.7,3,6.6,3.2,11.1.2,9,.2,18.306.2,27.608,0,5.7,0,11.4.2,16.805a48.951,48.951,0,0,0,.8,6.3,17.663,17.663,0,0,1-5.2,11.4,52.057,52.057,0,0,1-11.8-.3c-.2-.6-.4-.6-.6-.9a1.3,1.3,0,0,0-.2-.6C1192.8,122.672,1192.8,98.665,1193,74.357Zm-.6-.9h.4a1.3,1.3,0,0,0,.2.6C1192.8,74.057,1192.6,73.757,1192.4,73.457Zm104.2-34.51c-1.4.6-2.6,1.5-3.8,1.2-8.2-.6-16.6,1.2-24.8-.9-1.6,1.5-3.6-.6-5.4.6a2.655,2.655,0,0,1-2.6.3c-3.4-2.1-6.8-.6-10-1.5a1.652,1.652,0,0,0-1.6.6,23.706,23.706,0,0,0-.2,9.9c.6,3.3.4,6.3.6,9.3,0,3-.2,6.3,0,9.3a18.05,18.05,0,0,0,.8,4.2c-.8,1.5-.6,3.3-.6,5.4v13.5c0,6,.2,12.3-1.2,18.306,1.2,7.8,1.6,20.106.4,33.91-1.8,1.2-3.8.3-5.6.9a11.416,11.416,0,0,0-2.6,4.5c.6,4.8,1.6,10.2,2,15.3.4,5.7,1.2,11.1,1.6,15.6,1.8,2.4,4,0,5,2.7.2,21.907.4,43.813.4,65.72,0,2.7,1.2,5.4.2,8.1-.8,2.4.8,4.2.2,6.6-.6,2.1-.4,4.5-.6,6.6v6.9c0,4.8.2,9.9,0,15,0,1.5-.2,2.7.4,3.9,1.2,2.4,3,2.1,4.8,2.4,2.2.3,4.4-.6,6.6.6,2.2-1.5,4.4.3,6.6.6,1.6,0,3-.9,5-1.2,1.6,1.5,4.2,1.8,6.6,1.2a39.07,39.07,0,0,1,15.6-1.2c1.6,0,3.4.3,5.2-1.2a15.244,15.244,0,0,0,.8-2.7c.2-3.3.2-6.6.2-9.9,0-6.9,0-13.5.4-20.106-.6-1.5,0-3.6-1.2-4.8-5.4.3-11.2-1.2-16.6,1.2a18.556,18.556,0,0,0-3.8-1.2,11.173,11.173,0,0,0-4.4.3c-.089-2.319-.289-4.626-.6-6.9-.8-2.4-.6-4.8-.6-7.5-.2-8.7,0-17.405,0-26.108a53.877,53.877,0,0,0-1-12c1.2-9,.2-17.405,1.4-25.208a4.266,4.266,0,0,1,1.8-.6l17.2-.9c.7.083,1.345-.526,1.6-1.5v-6.9c.1-2.2.1-4.4,0-6.6,0-2.1-.8-4.2-.2-6.3-1-2.4.8-4.5,0-6.6s1-4.2-.4-6.6a2.992,2.992,0,0,0-2.8-1.8l-5,.9a25.029,25.029,0,0,1-12.4-.3c-.8-2.7-.4-5.7-.6-8.7-.4-14.1,1-28.209-.6-42.013v-.9a69.124,69.124,0,0,0-.2-12.9c0-1.8-.2-3.6.8-4.8a11.144,11.144,0,0,1,8.2.9,4.881,4.881,0,0,1,2.2-1.2,13.044,13.044,0,0,1,3.4-.3,23.784,23.784,0,0,0,11-2.4c.8-8.4-.2-16.5.2-24.607a43.372,43.372,0,0,0,0-5.1A5.628,5.628,0,0,0,1296.6,38.947ZM1380,222.6a8.741,8.741,0,0,1-.6-5.1c0-3-.6-6-.2-9,.2-3-.6-6-1.2-9l-.8-6.6c-.8-8.1-3.2-14.4-9-17.405a16.787,16.787,0,0,1,2.8-2.1c8.4-4.8,12.6-14.4,13.6-27.308a105.546,105.546,0,0,0-.2-21.006,38.865,38.865,0,0,1-.4-4.8,38.881,38.881,0,0,0-.2-8.4,54.233,54.233,0,0,1,0-5.7V68.656l-3.8-13.2a28.607,28.607,0,0,1-2.2-3c-3.2-6.9-7.8-9-13-9.9a8.31,8.31,0,0,1-2.8-.3c-2.4-1.5-4.8-1.2-7.2-1.2a21.536,21.536,0,0,1-6.2-.3,9.147,9.147,0,0,0-4.8-.9,124.008,124.008,0,0,0-23.6,0,2.279,2.279,0,0,0-1.2.6l-1.4,5.7c.6,8.1,1.2,15.9.8,23.407-.4,8.1,1.2,16.2-.6,24.007,1.2,3.9,0,8.4,1.6,11.7-.2,1.8-.6,3-.8,4.5-.2,3.9-.4,7.8-.8,11.7-.4,3.3,0,6.3.6,10.5a14.747,14.747,0,0,1,0,4.2c-.2,3.6,0,7.2,0,10.8a6.741,6.741,0,0,1-.4,1.5c-1.4.9-3,.3-4.4.6H1309c-1.241.106-2.331,1.274-2.8,3,1.4,4.5.8,9.6,1.8,14.4a71.283,71.283,0,0,1,1.8,14.7,26.492,26.492,0,0,1,1.2,3.9c2.2,3,4.4,1.2,6,1.8.8,1.5.6,3,.6,4.5,0,9.3-.2,18.606,0,27.608.2,9.6-1.6,18.906-.4,28.509.2.3,0,.9-.2,1.5-.6,1.5-.2,3.3-.2,4.8.4,8.1.4,16.2.6,24.007l.4,16.805a6.728,6.728,0,0,0,3.4,4.2,47.312,47.312,0,0,1,16.2-1.2c2-1.5,4.8.9,5.8-3-.8-6.9-1.4-16.505-.2-23.407a11.01,11.01,0,0,0,0-5.7c-1-2.4.2-4.2-.2-6.6a43.552,43.552,0,0,1-.4-7.5c0-3,.2-6,.2-9,0-3.3-.4-6.3-.4-9.3V189.292a16.662,16.662,0,0,1,.6-2.4c1.2.6,3,0,4.4,1.5,4.2,3.6,4.4,11.1,5,16.805.4,6,2,12,1.4,18.306a8.617,8.617,0,0,0,.2,2.4c1.6,6.3,1,12.9,1.8,19.206.8,7.2.4,15,1.4,22.507q.812,7.739,2.2,15.3c.6,4.49,2.509,8.341,5.2,10.5,1.4,1.2,2.6,3,4.2,3.9,6-1.5,12-1.2,18-1.5,1.2,0,2.6.6,3.8-.6a6.576,6.576,0,0,0,1.2-1.5,25.3,25.3,0,0,0-.2-6.9l-6-9.3-3.4-15c-.2-3.9,0-7.5-.6-10.5a38.273,38.273,0,0,1-.4-6.6,33.632,33.632,0,0,0-.6-6.3C1379,233.706,1379.2,228.6,1380,222.6Zm-20.6-80.124-1.6,3.9a5.485,5.485,0,0,1-3.4,2.7,21.708,21.708,0,0,1-4.4.3h-6.4a4.3,4.3,0,0,1-1.2-3.9c0-18.306,0-36.611-.2-54.617,0-3.9.4-8.1-.8-11.7.556-1.857,1.854-2.953,3.2-2.7h10l2.8,2.4,1.6,3.9a12.29,12.29,0,0,1,.2,2.7c.2,3.3-.2,6.6,1,9.9v1.5c0,9.3.6,18.606-.6,27.608-.4,3,.4,6-.2,9-.4,2.7,0,5.7,0,9Z" transform="translate(-1.6 -35.509)" fill="#c8c6c3"/>
</svg>
