<svg width="148" height="147" viewBox="0 0 148 147" fill="none" xmlns="http://www.w3.org/2000/svg">
<path fill-rule="evenodd" clip-rule="evenodd" d="M127 0H21C9.40202 0 0 9.40202 0 21V126C0 137.598 9.40202 147 21 147H127C138.598 147 148 137.598 148 126V21C148 9.40202 138.598 0 127 0ZM1 21C1 9.95431 9.95431 1 21 1H127C138.046 1 147 9.95431 147 21V126C147 137.046 138.046 146 127 146H21C9.95431 146 1 137.046 1 126V21ZM63.4045 48.7354C61.4054 48.1857 59.2175 48 56.8519 48H33V98.7148H57.3998C59.584 98.7148 61.7682 98.347 63.9524 97.7936C66.0248 97.2749 67.9941 96.4057 69.7756 95.2233C71.4156 94.1202 72.8742 92.4673 73.7812 90.6288C74.6919 88.7902 75.2398 86.5876 75.2398 84.0136C75.2398 80.8899 74.3291 78.1339 72.8742 75.9314C71.4156 73.7251 69.05 72.0722 65.9552 71.1511C68.1393 70.048 69.9607 68.5808 71.0528 66.9242C72.3263 65.2714 72.8742 63.0688 72.8742 60.4948C72.8742 58.2923 72.5077 56.268 71.7784 54.6151C71.0528 52.9623 69.9607 51.6771 68.5021 50.756C67.0472 49.8386 65.4073 49.1031 63.4045 48.7354ZM60.3096 67.11C59.0361 68.0274 57.3961 68.5771 55.3934 68.5771L55.3971 68.5808H44.106V56.6357H54.6641H54.6641C55.7599 56.6357 56.6669 56.6357 57.5775 56.8214C58.4882 57.0034 59.2175 57.3711 59.9468 57.7388C60.6724 58.2886 61.2203 58.842 61.5831 59.5774C61.9459 60.3128 62.131 61.4123 62.131 62.5154C62.131 64.536 61.5831 66.1925 60.3096 67.11ZM59.0361 89.8933C58.1254 90.0753 57.0333 90.2611 55.9413 90.2611L44.106 90.2648V76.1134H56.1227C58.4882 76.1134 60.491 76.6631 61.9496 77.7662C63.4045 79.0514 64.1338 80.8899 64.1338 83.4639C64.1338 84.7491 63.7673 85.8522 63.4045 86.7696C62.9455 87.564 62.3249 88.2525 61.5831 88.7902C60.8575 89.3436 59.9468 89.7076 59.0361 89.8933ZM97.6331 92.2816C94.7197 92.2816 92.5355 91.5462 91.0806 90.0753V90.0791C89.622 88.6082 88.5299 85.8522 88.5299 82.9105H114.929C115.11 79.9725 114.929 77.3985 114.566 74.8282C113.84 72.2542 112.745 69.866 111.286 67.8454C109.831 65.6391 108.014 64.1683 105.644 62.8831C103.279 61.598 100.547 61.0445 97.4517 61.0445C94.8316 61.0356 92.2345 61.5351 89.8034 62.5154C87.6202 63.4738 85.6427 64.8474 83.9802 66.5602C82.33 68.3851 81.0331 70.5025 80.156 72.804C79.2453 75.1959 78.8788 77.7662 78.8788 80.5222C78.8788 83.4639 79.2453 86.0342 80.156 88.4225C80.8546 90.7133 82.1044 92.7963 83.7951 94.4879C85.3757 96.2963 87.3774 97.6845 89.622 98.529C92.1164 99.5092 94.7728 100.008 97.4517 99.9999C101.639 99.9999 105.096 98.8968 108.014 97.0619C110.923 95.0376 113.107 91.9139 114.566 87.5088H105.644C105.281 88.6082 104.371 89.7113 102.912 90.8145C101.457 91.7319 99.6359 92.2816 97.6331 92.2816ZM96.9038 68.7628C99.2731 68.7628 101.276 69.4982 102.549 70.7834C103.823 72.0722 104.734 73.9071 105.096 76.6631H88.7113C88.7113 76.0583 88.8353 75.4509 88.9807 74.7382C89.0112 74.5887 89.0426 74.4345 89.0741 74.2748C89.2352 73.3096 89.68 72.4146 90.3513 71.7045L90.3659 71.6898C91.0903 70.9593 91.8135 70.23 92.8983 69.684C93.9904 69.1342 95.2675 68.7628 96.9038 68.7628ZM106.918 51.4914H86.5308V56.4537H106.918V51.4914Z" fill="#C8C6C3"/>
</svg>
