<svg width="148" height="147" viewBox="0 0 148 147" fill="none" xmlns="http://www.w3.org/2000/svg">
<path fill-rule="evenodd" clip-rule="evenodd" d="M127 0H21C9.40202 0 0 9.40202 0 21V126C0 137.598 9.40202 147 21 147H127C138.598 147 148 137.598 148 126V21C148 9.40202 138.598 0 127 0ZM1 21C1 9.95431 9.95431 1 21 1H127C138.046 1 147 9.95431 147 21V126C147 137.046 138.046 146 127 146H21C9.95431 146 1 137.046 1 126V21ZM59.3193 33H68.02V36.6382H62.9575V40.2765H68.02V43.9147H59.3193V33ZM69.7581 33H78.4623V36.1657H73.3998V36.7969H78.4623V44.0734H69.7581V40.7524H74.8206V40.1179H69.7581V33ZM80.2038 33H88.9011V36.1657H83.8386V36.7969H88.9011V44.0734H80.2038V40.7524H85.2663V40.1179H80.2038V33ZM74.4696 114L51.0336 107.493L44.125 48.9199H104.875L97.9697 107.486L74.4696 114ZM57.7836 75.4339L58.4282 82.6159H83.3256L82.492 91.9309L74.4798 94.0977H74.473L66.4743 91.9377L65.9613 86.2103H58.7489L59.7546 97.4895L74.4696 101.573L89.2083 97.4895L91.0037 77.361L91.1792 75.4339L92.4753 60.891H56.491L57.1457 68.0764H84.6048L83.95 75.4339H57.7836Z" fill="#C8C6C3"/>
</svg>
