<svg width="148" height="147" viewBox="0 0 148 147" fill="none" xmlns="http://www.w3.org/2000/svg">
<path fill-rule="evenodd" clip-rule="evenodd" d="M127 0H21C9.40202 0 0 9.40202 0 21V126C0 137.598 9.40202 147 21 147H127C138.598 147 148 137.598 148 126V21C148 9.40202 138.598 0 127 0ZM1 21C1 9.95431 9.95431 1 21 1H127C138.046 1 147 9.95431 147 21V126C147 137.046 138.046 146 127 146H21C9.95431 146 1 137.046 1 126V21ZM33 74C33 51.368 51.368 33 74 33C96.591 33 115 51.368 115 74C115 96.632 96.591 115 74 115C51.368 115 33 96.632 33 74ZM108.993 73.6884C108.918 65.7359 106.126 58.0482 101.08 51.901C100.326 52.8768 94.4549 60.4372 81.5604 65.6852C82.3765 67.3534 83.1475 69.0432 83.8728 70.7528C83.9738 70.9927 84.0694 71.2326 84.1639 71.47C84.3149 71.8492 84.4633 72.2218 84.6272 72.5773C95.9592 71.1498 107.206 73.3403 108.875 73.6654C108.922 73.6746 108.962 73.6823 108.993 73.6884ZM97.2142 47.8543C91.0314 42.3849 82.897 39.0475 74 39.0475C71.2301 39.038 68.4685 39.3517 65.7713 39.9823L65.7892 40.0066C66.8261 41.4165 73.1441 50.0074 78.8462 60.4823C91.2979 55.8124 96.591 48.7399 97.2142 47.8543ZM72.0894 62.5733C68.1315 55.5982 63.7969 48.8437 59.1047 42.3398C54.2045 44.654 49.9051 48.069 46.5419 52.3183C43.1787 56.5677 40.8426 61.5365 39.7158 66.8373C39.7439 66.8373 39.7762 66.8373 39.8126 66.8374C41.7928 66.8393 56.018 66.8528 72.0894 62.5733ZM38.9573 72.975V74.041C38.9554 82.6798 42.1584 91.013 47.9404 97.4315C48.7399 96.0949 58.3462 80.1746 76.4026 74.3526C76.6319 74.2825 76.8733 74.2136 77.1149 74.1446C77.3397 74.0803 77.5647 74.016 77.7802 73.9508C76.8905 71.95 75.9598 69.9492 74.9348 67.9935C57.4565 73.2415 40.4743 73.016 38.9573 72.975ZM52.5201 101.663C58.6523 106.457 66.2159 109.056 74 109.043C78.7098 109.054 83.3718 108.1 87.6981 106.238C86.057 97.1715 83.5542 88.282 80.2238 79.6908C80.1741 79.7192 80.138 79.7312 80.099 79.7442C80.0705 79.7537 80.0405 79.7637 80.0024 79.781C60.2609 86.6731 53.1433 100.371 52.5201 101.663ZM86.7141 78.0918C91.2979 90.6747 93.1675 100.904 93.5201 103.036C97.4982 100.374 100.883 96.919 103.462 92.8867C106.041 88.8543 107.758 84.3324 108.506 79.6047C107.308 79.2029 97.7021 76.3575 86.7141 78.0918Z" fill="#C8C6C3"/>
</svg>
