<svg width="148" height="147" viewBox="0 0 148 147" fill="none" xmlns="http://www.w3.org/2000/svg">
<path fill-rule="evenodd" clip-rule="evenodd" d="M127 0H21C9.40202 0 0 9.40202 0 21V126C0 137.598 9.40202 147 21 147H127C138.598 147 148 137.598 148 126V21C148 9.40202 138.598 0 127 0ZM1 21C1 9.95431 9.95431 1 21 1H127C138.046 1 147 9.95431 147 21V126C147 137.046 138.046 146 127 146H21C9.95431 146 1 137.046 1 126V21ZM74 33C96.632 33 115 51.414 115 74.1028C115 95.4351 98.805 112.945 78.1 115V86.4336H90.4V74.1028H78.1V65.8822C78.1 63.6216 79.945 61.7719 82.2 61.7719H90.4V49.4411H80.15C72.237 49.4411 65.8 55.8942 65.8 63.8271V74.1028H57.6V86.4336H65.8V114.383C47.104 110.561 33 93.9965 33 74.1028C33 51.414 51.368 33 74 33Z" fill="#C8C6C3"/>
</svg>
