<svg width="148" height="147" viewBox="0 0 148 147" fill="none" xmlns="http://www.w3.org/2000/svg">
<path fill-rule="evenodd" clip-rule="evenodd" d="M127 0H21C9.40202 0 0 9.40202 0 21V126C0 137.598 9.40202 147 21 147H127C138.598 147 148 137.598 148 126V21C148 9.40202 138.598 0 127 0ZM1 21C1 9.95431 9.95431 1 21 1H127C138.046 1 147 9.95431 147 21V126C147 137.046 138.046 146 127 146H21C9.95431 146 1 137.046 1 126V21ZM102.091 53.25C100.933 56.4321 98.9055 59.0357 96.0095 60.7714C98.6159 62.5071 100.933 65.1107 101.802 68.8714C102.96 72.0536 102.96 75.2357 102.091 78.4179C101.222 81.6 99.1951 84.2036 96.5887 86.2286C93.9823 87.9643 90.7967 89.1214 87.3216 89.1214H87.032C83.2672 89.1214 79.5024 87.675 76.6064 85.0714V98.9571C76.6064 103.007 74.8688 106.768 71.9728 109.661C68.7872 112.264 64.7328 114 60.6784 114C57.4929 114 54.0177 113.132 51.4113 111.107C48.5153 109.082 46.4881 106.479 45.6193 103.296C44.7505 100.114 44.7505 96.9321 45.9089 93.75C47.0673 90.5679 49.0945 87.9643 51.9905 86.2286C49.6737 84.7821 47.9361 83.0464 46.7777 80.7321C45.6193 78.4179 45.0401 76.1036 45.0401 73.5C45.0401 70.8964 45.6193 68.5821 46.7777 66.2679C47.9361 63.9536 49.9633 62.2179 51.9905 60.7714C49.0945 59.0357 47.0673 56.4321 45.9089 53.25C44.7505 50.3571 44.7505 46.8857 45.6193 43.7036C46.7777 40.8107 48.5153 37.9179 51.7009 35.8929C54.3073 34.1571 57.4929 33 60.968 33H87.6112C90.7967 33 94.2719 33.8679 96.8783 35.8929C99.4847 37.9179 101.512 40.5214 102.381 43.7036C103.25 46.8857 103.25 50.0679 102.091 53.25ZM87.3216 37.9179H76.6064V58.7464H87.3216C88.48 58.7464 89.9279 58.7464 91.3759 58.1679C92.5343 57.5893 93.6927 56.7214 94.8511 55.8536C95.7199 54.6964 96.5887 53.5393 97.1679 52.3821C97.7471 51.225 98.0367 49.7786 98.0367 48.3321C98.0367 46.8857 97.7471 45.7286 97.1679 44.2821C96.5887 42.8357 96.0095 41.6786 94.8511 40.8107C93.9823 39.6536 92.8239 39.075 91.3759 38.4964C90.2175 37.9179 88.7696 37.9179 87.3216 37.9179ZM71.3936 37.9179H60.6784C58.072 38.2071 55.4657 39.3643 53.7281 41.1C51.9905 42.8357 50.8321 45.4393 50.8321 48.0429C50.8321 50.6464 51.7009 53.25 53.7281 54.9857C55.4657 57.0107 58.072 58.1679 60.6784 58.1679H71.3936V37.9179ZM53.4385 66.2679C51.4113 68.2929 50.2529 70.8964 50.2529 73.5C50.2529 76.1036 51.4113 78.7071 53.4385 80.7321C55.4657 82.4679 58.0721 83.625 60.968 83.625H71.6832V63.375H60.968C58.0721 63.375 55.4657 64.2429 53.4385 66.2679ZM60.6784 108.793C63.5744 108.793 66.1808 107.925 68.208 105.9C70.2352 104.164 71.3936 101.561 71.3936 98.6679V88.2536H60.6784C59.52 88.2536 58.0721 88.2536 56.6241 88.8321C55.4657 89.4107 54.3073 90.2786 53.1489 91.1464L53.1488 91.1465C52.28 92.3036 51.4113 93.4607 50.8321 94.6179C50.2529 95.775 49.9633 97.2214 49.9633 98.6679C49.9633 100.114 50.2529 101.561 50.8321 102.718C51.4113 104.164 51.9905 105.321 53.1489 106.189C54.0177 107.057 55.1761 107.636 56.6241 108.214C57.7825 108.793 59.2304 108.793 60.6784 108.793ZM87.032 83.625H87.3216H91.3759C92.5343 83.0464 93.6927 82.1786 94.8511 81.3107C95.7199 80.1536 96.5887 78.9964 97.1679 77.8393C97.7471 76.6821 98.0367 75.2357 98.0367 73.7893C98.0367 72.3429 97.7471 70.8964 97.1679 69.7393C96.5887 68.2929 96.0095 67.1357 94.8511 66.2679C93.9823 65.1107 92.8239 64.5321 91.3759 63.9536C90.2175 63.375 88.7696 63.375 87.3216 63.375H87.032C84.4256 63.6643 81.8192 64.5321 80.0816 66.5571C78.344 68.2929 77.1856 70.8964 77.1856 73.5C77.1856 76.1036 78.344 78.4179 80.0816 80.4429C81.8192 82.4679 84.4256 83.625 87.032 83.625Z" fill="#C8C6C3"/>
</svg>
