<svg width="148" height="147" viewBox="0 0 148 147" fill="currentColor" xmlns="http://www.w3.org/2000/svg">
<path fill-rule="evenodd" clip-rule="evenodd" d="M127 0H21C9.40202 0 0 9.40202 0 21V126C0 137.598 9.40202 147 21 147H127C138.598 147 148 137.598 148 126V21C148 9.40202 138.598 0 127 0ZM1 21C1 9.95431 9.95431 1 21 1H127C138.046 1 147 9.95431 147 21V126C147 137.046 138.046 146 127 146H21C9.95431 146 1 137.046 1 126V21ZM57.9273 36.1984C63.023 34.0868 68.4845 33 74 33C79.5155 33 84.977 34.0868 90.0727 36.1984C95.1684 38.31 99.7984 41.405 103.698 45.3068C107.599 49.2085 110.692 53.8405 112.803 58.9383C114.914 64.0362 116 69.5 116 75.0179C116 93.5898 103.988 109.305 87.314 114.935C85.172 115.313 84.5 113.968 84.5 112.834V101.321C84.5 97.4134 83.114 94.8503 81.602 93.5478C90.968 92.4974 100.796 88.9678 100.796 72.917C100.796 68.253 99.2 64.5134 96.47 61.5302C96.89 60.4797 98.36 56.1098 96.05 50.4374C96.05 50.4374 92.522 49.3029 84.5 54.7233C81.182 53.7989 77.57 53.3367 74 53.3367C70.43 53.3367 66.818 53.7989 63.5 54.7233C55.478 49.3029 51.95 50.4374 51.95 50.4374C49.64 56.1098 51.11 60.4797 51.53 61.5302C48.8 64.5134 47.204 68.253 47.204 72.917C47.204 88.9258 56.99 92.5394 66.314 93.5898C65.138 94.6403 64.046 96.4891 63.668 99.2202C61.274 100.229 55.1 102.119 51.446 95.7327C51.446 95.7327 49.22 91.699 45.02 91.4049C45.02 91.4049 40.904 91.3208 44.726 93.926C44.726 93.926 47.456 95.2285 49.388 100.103C49.388 100.103 51.866 108.254 63.5 105.733V112.834C63.5 113.968 62.828 115.271 60.728 114.935C44.054 109.347 32 93.5898 32 75.0179C32 63.8741 36.425 53.1866 44.3015 45.3068C48.2016 41.405 52.8316 38.31 57.9273 36.1984Z" fill="#C8C6C3"/>
</svg>
