<svg width="148" height="147" viewBox="0 0 148 147" fill="none" xmlns="http://www.w3.org/2000/svg">
<g clip-path="url(#clip0_3_277)">
<mask id="mask0_3_277" style="mask-type:luminance" maskUnits="userSpaceOnUse" x="34" y="33" width="81" height="81">
<path d="M34 33H115V114H34V33Z" fill="white"/>
</mask>
<g mask="url(#mask0_3_277)">
<path d="M51.145 33H54.7968V36.6079H58.138V33H61.7898V43.9215H58.138V40.2664H54.7968V43.9215H51.1484L51.145 33ZM66.589 36.6214H63.376V33H73.4571V36.6214H70.2408V43.9215H66.589V36.6214ZM75.0569 33H78.8639L81.2061 36.8374L83.545 33H87.352V43.9215H83.7171V38.508L81.2061 42.3926H81.142L78.6276 38.5114V43.9215H75.0569V33ZM89.1678 33H92.8229V40.3136H97.9529V43.9249H89.1678V33Z" fill="#C8C6C3"/>
<path fill-rule="evenodd" clip-rule="evenodd" d="M51.0303 107.493L44.125 48.9199H104.875L97.9664 107.486L74.4662 114L51.0303 107.493ZM64.9926 75.4305L64.3379 68.073H91.8273L92.4685 60.891H56.491L58.4282 82.6159H83.3256L82.492 91.9309L74.4798 94.0977H74.473L66.4742 91.9377L65.9613 86.2103H58.7455L59.7513 97.4895L74.4662 101.573L89.2049 97.4895L91.0004 77.361L91.1759 75.4339H64.9926V75.4305Z" fill="#C8C6C3"/>
</g>
</g>
<rect x="0.5" y="0.5" width="147" height="146" rx="20.5" stroke="#C8C6C3"/>
<defs>
<clipPath id="clip0_3_277">
<rect width="81" height="81" fill="white" transform="translate(34 33)"/>
</clipPath>
</defs>
</svg>
