<svg id="ai" xmlns="http://www.w3.org/2000/svg" width="148" height="147" viewBox="0 0 148 147">
  <path id="Path_1" data-name="Path 1" d="M23.85,23.85,26,22.3a2.65,2.65,0,0,0-4.8,1.552ZM39.75,74.2A34.45,34.45,0,0,1,5.3,39.75H0A39.75,39.75,0,0,0,39.75,79.5ZM74.2,39.75A34.45,34.45,0,0,1,39.75,74.2v5.3A39.75,39.75,0,0,0,79.5,39.75ZM39.75,5.3A34.45,34.45,0,0,1,74.2,39.75h5.3A39.75,39.75,0,0,0,39.75,0Zm0-5.3A39.75,39.75,0,0,0,0,39.75H5.3A34.45,34.45,0,0,1,39.75,5.3ZM26.5,63.6V23.85H21.2V63.6ZM21.7,25.4l34.45,47.7,4.3-3.1L26,22.3ZM53,21.2V53h5.3V21.2Z" transform="translate(34.25 33.75)" fill="#c8c6c3" stroke="#fff" stroke-width="0"/>
  <rect id="Rectangle_3" data-name="Rectangle 3" width="147" height="146" rx="20.5" transform="translate(0.5 0.5)" fill="none" stroke="#c8c6c3" stroke-width="1"/>
</svg>
