<svg width="148" height="147" viewBox="0 0 148 147" fill="none" xmlns="http://www.w3.org/2000/svg">
<path fill-rule="evenodd" clip-rule="evenodd" d="M127 0H21C9.40202 0 0 9.40202 0 21V126C0 137.598 9.40202 147 21 147H127C138.598 147 148 137.598 148 126V21C148 9.40202 138.598 0 127 0ZM1 21C1 9.95431 9.95431 1 21 1H127C138.046 1 147 9.95431 147 21V126C147 137.046 138.046 146 127 146H21C9.95431 146 1 137.046 1 126V21ZM34 114V34H115V114H34ZM111.623 37.4182H37.3742V110.579H111.623V37.4182ZM54.3285 52.3371C54.0526 52.3371 53.5767 52.5089 53.5767 52.7371V89.5189C53.5767 89.7984 53.683 89.9061 53.9589 89.9061H59.1809C59.4568 89.9061 59.5631 89.7856 59.5631 89.5061V76.3643C59.9703 76.3643 60.2824 76.378 60.6229 76.3931C61.0316 76.4111 61.4812 76.4309 62.1855 76.4309C69.8071 76.4309 76.0289 72.705 76.0289 64.0096C76.0289 57.3579 72.3915 52.1627 63.0309 52.1627C60.1292 52.1547 57.2276 52.2128 54.3285 52.3371ZM62.3039 70.9562C60.9602 70.9562 60.3401 70.9562 59.5631 70.9024V57.6964C60.1833 57.6425 61.4615 57.5887 62.793 57.5887C67.3011 57.5887 69.964 59.7914 69.964 64.1327C69.964 69.5407 66.2456 70.9562 62.3044 70.9562H62.3039ZM85.0477 69.3125C85.0477 68.1894 85.9438 66.8277 88.6193 66.8277L88.6067 66.8175C90.7683 66.8175 92.9832 67.3919 94.4868 68.2868C94.8158 68.4073 94.9879 68.233 94.9879 67.9535V63.266C94.9879 63.0378 94.9348 62.7583 94.6589 62.5839C93.5375 62.089 91.4948 61.6351 88.594 61.6351C82.7012 61.6351 79.2993 65.2943 79.2993 69.7023C79.2993 73.6564 81.304 76.0206 86.1032 78.3439C89.4926 80.1465 90.2697 81.2158 90.2697 82.457C90.2697 83.9904 89.161 85.1135 86.4855 85.1135C84.0758 85.119 81.7168 84.4133 79.6967 83.0826C79.4739 82.9083 79.3144 83.0288 79.3144 83.3621V88.383C79.3144 88.665 79.3676 88.8368 79.5777 88.9445C81.0281 89.7856 83.5442 90.4139 86.4981 90.4139C92.0618 90.4139 96.1878 87.4752 96.1878 82.0133C96.1878 78.3413 94.5146 75.8719 89.2268 73.2666C85.6552 71.3973 85.0477 70.5536 85.0477 69.3125Z" fill="#C8C6C3"/>
</svg>
