<svg id="ai" xmlns="http://www.w3.org/2000/svg" width="148" height="147" viewBox="0 0 148 147">
  <g id="Group_1" data-name="Group 1" transform="translate(37 37.7)">
    <path id="Path_7" data-name="Path 7" d="M79,41.622c0-5.7-6.249-10.33-15.458-13.536,2.3-10.33,1.316-18.523-2.96-21.017A7.06,7.06,0,0,0,56.964,6c-4.276,0-9.538,3.206-14.8,8.905C36.573,9.206,31.311,6,27.036,6a6.252,6.252,0,0,0-3.618,1.069c-4.276,2.494-5.262,10.687-2.96,21.017C11.249,31.292,5,35.922,5,41.622s6.249,10.33,15.458,13.536c-2.3,10.33-1.644,18.523,2.96,21.373A6.252,6.252,0,0,0,27.036,77.6c4.276,0,9.538-3.206,14.8-8.905,5.262,5.7,10.853,8.905,14.8,8.905a6.252,6.252,0,0,0,3.618-1.069c4.276-2.85,5.262-11.043,2.96-21.373C72.751,51.952,79,46.965,79,41.622ZM56.964,9.918c.658,0,1.316,0,1.644.356,1.973,1.425,2.96,6.056,2.3,12.111-.329,1.425-.329,3.206-.658,4.631a76.484,76.484,0,0,0-9.538-1.781A74.817,74.817,0,0,0,44.8,17.4C49.4,12.412,54,9.918,56.964,9.918ZM52.031,48.034c-.987,2.137-2.3,3.918-3.289,6.056-2.3,0-4.276.356-6.578.356a38.752,38.752,0,0,1-6.578-.356A34.562,34.562,0,0,1,32.3,48.034l-2.96-6.412L32.3,35.21a35.747,35.747,0,0,1,3.618-6.056c1.973,0,4.276-.356,6.578-.356a40.732,40.732,0,0,1,6.578.356c1.316,1.781,2.3,3.918,3.618,6.056l2.96,6.412A63.114,63.114,0,0,0,52.031,48.034Zm4.933-1.781c.658,2.137,1.316,3.918,1.973,6.056l-5.92,1.069a31.952,31.952,0,0,0,1.973-3.562c.658-1.069,1.316-2.494,1.973-3.562ZM41.836,63a60.966,60.966,0,0,1-3.947-4.987h7.893A60.966,60.966,0,0,1,41.836,63ZM30.653,53.377l-5.92-1.069c.658-2.137,1.316-3.918,1.973-6.056.658,1.069,1.316,2.494,1.973,3.562a31.95,31.95,0,0,0,1.973,3.562ZM27.036,36.991c-.658-2.137-1.316-4.275-1.973-6.056l5.92-1.069c-.658,1.069-1.316,2.494-1.973,3.562A9.683,9.683,0,0,0,27.036,36.991Zm14.8-16.742a60.965,60.965,0,0,1,3.947,4.987H37.889A60.965,60.965,0,0,1,41.836,20.249Zm13.156,13.18a31.951,31.951,0,0,0-1.973-3.562l5.92,1.069c-.658,2.137-1.316,4.275-1.973,6.056C56.307,35.922,55.649,34.5,54.991,33.429Zm-31.9-11.043c-.658-6.056,0-10.687,2.3-12.111.329-.356.987-.356,1.644-.356,2.96,0,7.564,2.494,12.5,7.837-1.973,2.494-3.947,4.987-5.92,7.837a76.485,76.485,0,0,0-9.538,1.781A14.988,14.988,0,0,1,23.089,22.386Zm-5.92,27.073c-5.262-2.494-8.551-5.343-8.551-8.193,0-2.494,3.289-5.7,8.551-8.193a15.386,15.386,0,0,1,4.276-1.425c.987,3.206,1.973,6.412,3.289,9.618a55.438,55.438,0,0,0-3.289,9.618,8.826,8.826,0,0,1-4.276-1.425Zm8.222,23.51c-1.973-1.425-2.96-6.056-2.3-12.111a33.906,33.906,0,0,1,.987-4.987,71.192,71.192,0,0,0,9.209,1.781,74.2,74.2,0,0,0,6.249,8.193C34.6,70.832,30,73.682,27.036,73.682c-.658-.356-1.316-.356-1.644-.712Zm35.52-12.111c.658,6.056,0,10.687-2.3,12.111-.329.356-.987.356-1.644.356-2.96,0-7.564-2.494-12.5-7.837A81.856,81.856,0,0,0,50.716,57.3c3.289-.356,6.578-.712,9.209-1.781q.493,3.206.987,5.343Zm5.92-11.4c-1.316.712-2.631,1.069-4.276,1.781-.987-3.206-1.973-6.412-3.289-9.618A67.9,67.9,0,0,0,62.556,32c1.644.356,2.96,1.069,4.276,1.425,5.262,2.494,8.551,5.343,8.551,8.193,0,2.494-3.289,5.7-8.551,7.837Z" transform="translate(-5 -6)" fill="#c8c6c3"/>
    <path id="Path_8" data-name="Path 8" d="M19.2,23.9a4.882,4.882,0,0,0,5-5,4.882,4.882,0,0,0-5-5,4.882,4.882,0,0,0-5,5A4.882,4.882,0,0,0,19.2,23.9Z" transform="translate(17.8 16.9)" fill="#c8c6c3"/>
  </g>
  <rect id="Rectangle_3" data-name="Rectangle 3" width="147" height="146" rx="20.5" transform="translate(0.5 0.5)" fill="none" stroke="#c8c6c3" stroke-width="1"/>
</svg>
