<svg width="148" height="147" viewBox="0 0 148 147" fill="none" xmlns="http://www.w3.org/2000/svg">
<path fill-rule="evenodd" clip-rule="evenodd" d="M127 0H21C9.40202 0 0 9.40202 0 21V126C0 137.598 9.40202 147 21 147H127C138.598 147 148 137.598 148 126V21C148 9.40202 138.598 0 127 0ZM1 21C1 9.95431 9.95431 1 21 1H127C138.046 1 147 9.95431 147 21V126C147 137.046 138.046 146 127 146H21C9.95431 146 1 137.046 1 126V21ZM90.0551 37.4838C90.3473 37.342 90.6509 37.2254 90.9627 37.1353C91.3381 37.0255 92.1174 36.9825 93.2435 37.0064C94.6453 37.0398 95.0587 37.0923 95.5339 37.3072C95.8523 37.4504 99.4446 39.804 103.517 42.5348C109.333 46.4352 111.006 47.6144 111.281 48.0154C111.359 48.1278 111.428 48.2112 111.489 48.2998C112.033 49.0808 111.999 50.2644 111.999 75.223C111.999 100.19 112.057 101.573 111.394 102.285C111.299 102.387 111.189 102.475 111.063 102.617C110.549 103.185 109.884 103.543 102.757 107.114L95.0064 111H88.6011L87.8883 110.618C87.3846 110.346 83.4882 106.885 74.7165 98.9072L61.7442 87.1009L61.2263 86.6235L54.9634 91.3403C51.5232 93.9374 48.4773 96.186 48.197 96.334C47.4557 96.735 45.8829 96.7255 45.0941 96.3101C44.2958 95.8948 36.8688 88.452 36.4126 87.6165C36.0952 87.0125 35.9573 86.3295 36.0154 85.6489C36.0735 84.9684 36.3252 84.319 36.7405 83.7781C36.9591 83.5156 39.4585 81.2861 42.2905 78.8322C45.1226 76.3735 47.4557 74.3207 47.4747 74.2634C47.4984 74.2109 45.1416 72.0052 42.2383 69.3652C39.3397 66.7251 36.8023 64.3381 36.6074 64.0659C36.2467 63.5318 36.0383 62.9087 36.0048 62.2641C35.9713 61.6195 36.114 60.978 36.4174 60.409C36.8688 59.5735 44.3053 52.1307 45.0941 51.7201C45.7831 51.3669 47.2941 51.3048 48.0069 51.6056C48.254 51.7058 51.4186 54.026 55.0395 56.752C58.6651 59.4828 61.7157 61.7171 61.8202 61.7171C61.9248 61.7171 68.2446 56.308 75.8664 49.6959C83.4835 43.079 89.8698 37.5841 90.0551 37.4838ZM104.895 52.0543L99.0359 48.1396C95.8142 45.9865 93.1533 44.2248 93.1152 44.2296C90.1226 46.7787 87.1463 49.3472 84.1867 51.935C80.7234 54.9435 77.2594 57.9512 73.7946 60.958L68.1543 65.8562C65.8925 67.8231 63.797 69.5466 63.5023 69.685C63.1183 69.8491 62.7139 69.9599 62.3001 70.0145C61.0029 70.1672 60.8081 70.0479 53.6995 64.6866C50.1072 61.9749 47.1088 59.7549 47.047 59.7549C46.6073 60.0878 46.2 60.4618 45.8306 60.8721L44.7329 61.9844L50.1974 66.9495C53.88 70.2961 55.7855 72.1103 56.0373 72.5208C56.3367 73.003 56.4222 73.3133 56.4698 74.0676C56.522 74.8745 56.484 75.0989 56.2132 75.7052C56.0183 76.1253 55.6239 76.6552 55.2153 77.0419C54.7211 77.505 48.0449 83.3151 44.847 86.0697C44.7709 86.1365 46.895 88.2753 47.0375 88.2753C47.0993 88.2753 49.9551 86.1652 53.3811 83.5824C56.8071 81.0044 59.739 78.8226 59.9005 78.7367C60.6655 78.3214 62.0958 78.3548 63.0414 78.8035C63.2838 78.9229 69.6226 84.5945 77.1209 91.4119L90.7536 103.805H93.4574L99.1785 100.941L104.904 98.0765L104.9 75.0654L104.895 52.0543ZM90.5208 56.3892C90.7695 56.2938 91.0233 56.2126 91.2811 56.1457C91.704 56.0455 92.6401 56.1982 93.2435 56.4656C94.0063 56.8109 94.6261 57.4117 94.9969 58.1652L95.3343 58.8001V89.2302L94.9969 89.8651C94.1131 91.5408 92.2314 92.3142 90.5826 91.6793C90.269 91.5599 85.3937 88.1178 79.7486 84.0359C70.1021 77.0554 68.9883 76.2718 68.6535 75.2363C68.6015 75.0757 68.5683 74.909 68.5249 74.7122C68.4013 74.2558 68.4013 73.7745 68.5249 73.3181C68.569 73.1211 68.6026 72.9543 68.6548 72.7935C68.9911 71.7582 70.0995 70.9738 79.7486 63.9943C85.3937 59.9125 90.2404 56.4895 90.5208 56.3892ZM88.1117 81.2431L88.1449 77.6291C88.1639 75.2198 88.1639 72.8104 88.1449 70.4011L88.1117 66.7872L83.1413 70.3677C80.4091 72.3394 78.171 73.9817 78.171 74.0151C79.8087 75.257 81.4657 76.4729 83.1413 77.6625L88.1117 81.2431Z" fill="#C8C6C3"/>
</svg>
