<svg width="148" height="147" viewBox="0 0 148 147" fill="none" xmlns="http://www.w3.org/2000/svg">
<path fill-rule="evenodd" clip-rule="evenodd" d="M127 0H21C9.40202 0 0 9.40202 0 21V126C0 137.598 9.40202 147 21 147H127C138.598 147 148 137.598 148 126V21C148 9.40202 138.598 0 127 0ZM1 21C1 9.95431 9.95431 1 21 1H127C138.046 1 147 9.95431 147 21V126C147 137.046 138.046 146 127 146H21C9.95431 146 1 137.046 1 126V21ZM80.5789 46C75.034 46 70.9721 47.6674 67.9134 50.4295C64.8865 53.163 62.9196 56.8995 61.4097 60.9077L61.4078 60.9123L61.3918 60.9525L61.3292 61.1095L61.0911 61.7067L60.2362 63.8507C59.526 65.6322 58.5725 68.0248 57.599 70.4693C56.6203 72.9271 55.6199 75.4413 54.8266 77.4393C54.6429 75.7479 54.4184 73.7481 54.1975 71.8052C53.9474 69.6047 53.699 67.4513 53.5131 65.8481C53.4201 65.0465 53.3428 64.3824 53.2887 63.9186L53.2259 63.3811L53.2094 63.2398L53.2068 63.2177C52.5512 53.0282 43.76 46.0815 36 46.0815C35.7083 46.0815 35.4312 46.2089 35.2413 46.4302C35.0513 46.6514 34.9674 46.9446 35.0115 47.2329L43.1168 100.151C43.1918 100.641 43.6144 101.002 44.11 101C55.6406 100.945 64.0105 94.3823 67.3232 86.1022C67.3305 86.0839 67.3373 86.0654 67.3435 86.0466L66.3947 85.7308C67.3435 86.0466 67.3436 86.0466 67.3436 86.0464L67.3438 86.0458L67.3446 86.0434L67.3478 86.0339L67.3603 85.9963L67.4092 85.8495L67.5948 85.2917L68.2593 83.2945C68.8102 81.6381 69.5473 79.4211 70.2921 77.1786C70.8927 75.37 71.5007 73.5377 72.0201 71.9689C72.4145 75.1662 72.9736 79.6551 73.5275 84.0914C74.0308 88.1226 74.5324 92.1309 74.9082 95.1313L75.3621 98.7531L75.4892 99.7662L75.5226 100.033L75.5312 100.101L75.5334 100.119L75.5339 100.123L75.534 100.124C75.5341 100.124 75.5341 100.124 76.5263 100L75.5341 100.124C75.5968 100.625 76.0222 101 76.5263 101C88.1398 101 96.3261 94.0979 99.7353 86.1239C99.7422 86.1077 99.7487 86.0912 99.7548 86.0747L113.939 47.3439C114.051 47.0372 114.007 46.695 113.82 46.4272C113.633 46.1595 113.327 46 113 46C101.3 46 94.8833 54.8816 91.8026 62.951L91.8018 62.953L92.7368 63.3077C91.8018 62.953 91.8018 62.9531 91.8018 62.9532L91.8016 62.9537L91.8008 62.9557L91.7978 62.9637L91.7858 62.9954L91.739 63.1187L91.5611 63.5883C91.4076 63.9936 91.1877 64.5743 90.9223 65.2762C90.3915 66.6799 89.6785 68.5685 88.9498 70.5073C88.2709 72.3135 87.5728 74.1778 86.9957 75.7352C86.3911 72.4207 85.4529 67.4076 84.5312 62.5112C83.7829 58.5356 83.0405 54.6111 82.4851 51.6806C82.2074 50.2153 81.9765 48.9985 81.8149 48.148L81.6276 47.1617L81.5783 46.9022L81.5656 46.8357L81.5624 46.8188L81.5616 46.8146L81.5614 46.8135C81.5614 46.8133 81.5613 46.8132 80.5789 47L81.5613 46.8132C81.4716 46.3414 81.0592 46 80.5789 46ZM63.2709 61.6399C63.2709 61.6398 63.2709 61.6397 62.3421 61.2692L63.2709 61.6397L63.278 61.6216C64.7423 57.7322 66.5699 54.3377 69.2539 51.9139C71.7629 49.6481 75.089 48.1689 79.7536 48.0136L79.8501 48.5211C80.0115 49.3714 80.2424 50.588 80.5201 52.053C81.0753 54.9831 81.8177 58.9067 82.5658 62.8811C84.0694 70.8696 85.5766 78.9612 85.6644 79.729C85.718 80.1984 86.093 80.5662 86.5633 80.6109C87.0337 80.6556 87.4712 80.3649 87.6123 79.914C87.8525 79.146 89.3564 75.1099 90.8219 71.211C91.55 69.2738 92.2625 67.3866 92.793 65.9836C93.0583 65.2821 93.278 64.7017 93.4314 64.2968L93.6092 63.8276L93.6559 63.7045L93.6678 63.673L93.6708 63.665L93.6711 63.6644L93.6718 63.6625C96.5054 56.2414 102.005 48.7439 111.55 48.0519L97.886 85.3617C94.8425 92.4566 87.6659 98.6493 77.4069 98.9856L77.3466 98.5043L76.8927 94.8828C76.5169 91.8825 76.0153 87.8745 75.5121 83.8436C75.0088 79.8127 74.5039 75.7591 74.1216 72.6676C73.9304 71.1218 73.7699 69.8171 73.6557 68.8762C73.5985 68.4056 73.553 68.027 73.521 67.7551C73.505 67.619 73.4926 67.511 73.4838 67.4321C73.475 67.3527 73.4717 67.3191 73.4712 67.3138L73.4711 67.313C73.4365 66.8313 73.0626 66.4431 72.5825 66.3906C72.1025 66.338 71.6534 66.636 71.5154 67.0988C71.3997 67.4869 69.8887 72.0475 68.394 76.5483C67.6494 78.7904 66.9124 81.0071 66.3615 82.6632L65.6971 84.6602L65.5115 85.2179L65.4627 85.3646L65.4554 85.3865C62.5199 92.6932 55.2149 98.621 44.9611 98.9828L37.1741 48.1423C43.6202 48.8014 50.6715 54.7681 51.2125 63.3705C51.2131 63.3795 51.2138 63.3885 51.2146 63.3974C51.2154 63.4063 51.2163 63.4152 51.2173 63.4241L52.2105 63.3077C51.2173 63.4241 51.2173 63.4241 51.2173 63.4242L51.2174 63.4248L51.2177 63.4271L51.2187 63.4362L51.223 63.4723L51.2395 63.6134L51.3022 64.1503C51.3562 64.6137 51.4335 65.2774 51.5264 66.0785C51.7122 67.6808 51.9604 69.8326 52.2103 72.0311C52.7144 76.4663 53.2129 80.9902 53.2375 81.6889C53.2541 82.1641 53.6031 82.5618 54.0721 82.6402C54.541 82.7185 55.0003 82.4558 55.1706 82.0119C55.4857 81.1901 57.5081 76.1036 59.4571 71.2093C60.4305 68.765 61.3839 66.3727 62.094 64.5913L62.9488 62.4475L63.1869 61.8504L63.2495 61.6935L63.2655 61.6533L63.2696 61.6431L63.2706 61.6406L63.2709 61.6399Z" fill="#C8C6C3"/>
</svg>
